# xmcd
#
# Track frame offsets:
# 150
# 18010
# 35200
# 51698
# 69108
# 82639
# 99466
# 117331
# 137926
# 153154
# 165772
# 188874
# 204949
# 220828
#
# Disc length: 3136 seconds
#
#
# Revision: 1
# Processed by: cddbd v1.5.2PL0 Copyright (c) Steve Scherf et al.
# Submitted via: FreeRIP 2.92 
#
DISCID=b00c3e0e
DTITLE=Guilherme e Santiago - Guilherme e Santiago
DYEAR=2006
DGENRE=Country
TTITLE0=Abcde
TTITLE1=Seu amor é tudo que eu quero
TTITLE2=Ai, ai, ai amor
TTITLE3=Bobão
TTITLE4=Não sou maluco
TTITLE5=Mete o pé na solidão
TTITLE6=Não demora
TTITLE7=Não desligue o rádio
TTITLE8=Casei com a tia
TTITLE9=Quem disse adeus foi você
TTITLE10=Quem ama uma vez não deixa de amar
TTITLE11=Quando a saudade judia
TTITLE12=Loucura demais
TTITLE13=Eu te amo meu Brasil
EXTD=Album V.10  Abcde 2006
EXTT0=
EXTT1=
EXTT2=
EXTT3=
EXTT4=
EXTT5=
EXTT6=
EXTT7=
EXTT8=
EXTT9=
EXTT10=
EXTT11=
EXTT12=
EXTT13=
PLAYORDER=
